<mxfile host="app.diagrams.net" modified="2023-07-06T09:15:28.148Z" agent="Mozilla/5.0 (Windows NT 10.0; Win64; x64) AppleWebKit/537.36 (KHTML, like Gecko) Chrome/114.0.0.0 Safari/537.36" etag="t99CdF5BDr0P7EWI1tZr" version="21.6.1" type="github">
  <diagram name="Page-1" id="c37626ed-c26b-45fb-9056-f9ebc6bb27b6">
    <mxGraphModel dx="1679" dy="905" grid="1" gridSize="10" guides="1" tooltips="1" connect="1" arrows="1" fold="1" page="1" pageScale="1" pageWidth="1169" pageHeight="827" background="none" math="0" shadow="0">
      <root>
        <mxCell id="0" />
        <mxCell id="1" parent="0" />
        <mxCell id="CEXHskLTJOovul5yJfJE-6" value="" style="ellipse;whiteSpace=wrap;html=1;fillColor=#dae8fc;strokeColor=#6c8ebf;" parent="1" vertex="1">
          <mxGeometry x="726" y="410" width="274" height="170" as="geometry" />
        </mxCell>
        <mxCell id="CEXHskLTJOovul5yJfJE-5" value="" style="ellipse;whiteSpace=wrap;html=1;fillColor=#f8cecc;strokeColor=#b85450;" parent="1" vertex="1">
          <mxGeometry x="430" y="425" width="282.62" height="195" as="geometry" />
        </mxCell>
        <mxCell id="CEXHskLTJOovul5yJfJE-2" value="" style="ellipse;whiteSpace=wrap;html=1;fillColor=#e1d5e7;strokeColor=#9673a6;" parent="1" vertex="1">
          <mxGeometry x="156.37" y="392" width="270" height="178" as="geometry" />
        </mxCell>
        <mxCell id="CEXHskLTJOovul5yJfJE-1" value="" style="ellipse;whiteSpace=wrap;html=1;fillColor=#d5e8d4;strokeColor=#82b366;" parent="1" vertex="1">
          <mxGeometry x="350" y="119" width="440" height="240" as="geometry" />
        </mxCell>
        <mxCell id="8NDlUTmJP2dTjy302EjL-38" style="edgeStyle=none;rounded=0;hachureGap=4;orthogonalLoop=1;jettySize=auto;html=1;exitX=0.5;exitY=0;exitDx=0;exitDy=0;exitPerimeter=0;entryX=0.5;entryY=1;entryDx=0;entryDy=0;entryPerimeter=0;fontFamily=Architects Daughter;fontSource=https%3A%2F%2Ffonts.googleapis.com%2Fcss%3Ffamily%3DArchitects%2BDaughter;fontSize=16;strokeColor=#EA6B66;endArrow=none;endFill=0;strokeWidth=3;" parent="1" source="8NDlUTmJP2dTjy302EjL-2" target="8NDlUTmJP2dTjy302EjL-5" edge="1">
          <mxGeometry relative="1" as="geometry">
            <mxPoint x="355" y="312" as="sourcePoint" />
          </mxGeometry>
        </mxCell>
        <mxCell id="8NDlUTmJP2dTjy302EjL-45" style="edgeStyle=none;rounded=0;hachureGap=4;orthogonalLoop=1;jettySize=auto;html=1;exitX=0.5;exitY=0;exitDx=0;exitDy=0;exitPerimeter=0;entryX=0.5;entryY=1;entryDx=0;entryDy=0;entryPerimeter=0;fontFamily=Architects Daughter;fontSource=https%3A%2F%2Ffonts.googleapis.com%2Fcss%3Ffamily%3DArchitects%2BDaughter;fontSize=16;strokeWidth=3;strokeColor=#EA6B66;endArrow=none;endFill=0;" parent="1" source="hgnLhlOXLDX8HSQQPNeT-8" target="8NDlUTmJP2dTjy302EjL-5" edge="1">
          <mxGeometry relative="1" as="geometry">
            <mxPoint x="879" y="560" as="sourcePoint" />
          </mxGeometry>
        </mxCell>
        <mxCell id="8NDlUTmJP2dTjy302EjL-7" value="" style="shape=mxgraph.cisco.misc.route_switch_processor;html=1;dashed=0;fillColor=#036897;strokeColor=#ffffff;strokeWidth=2;verticalLabelPosition=bottom;verticalAlign=top;rounded=0;shadow=0;comic=0;fontFamily=Verdana;fontSize=12;" parent="1" vertex="1">
          <mxGeometry x="627" y="190" width="71" height="95" as="geometry" />
        </mxCell>
        <mxCell id="8NDlUTmJP2dTjy302EjL-67" value="Spine-1&lt;br&gt;L0:&amp;nbsp;10.1.0.1/32" style="text;html=1;strokeColor=none;fillColor=none;align=center;verticalAlign=middle;whiteSpace=wrap;rounded=0;fontSize=20;fontFamily=Helvetica;horizontal=1;" parent="1" vertex="1">
          <mxGeometry x="428.25" y="147" width="141.75" height="40" as="geometry" />
        </mxCell>
        <mxCell id="8NDlUTmJP2dTjy302EjL-68" value="Leaf-1&lt;br&gt;L0:&amp;nbsp;10.1.1.1/32" style="text;html=1;strokeColor=none;fillColor=none;align=center;verticalAlign=middle;whiteSpace=wrap;rounded=0;fontSize=20;fontFamily=Helvetica;horizontal=1;" parent="1" vertex="1">
          <mxGeometry x="162" y="425" width="155" height="50" as="geometry" />
        </mxCell>
        <mxCell id="8NDlUTmJP2dTjy302EjL-69" value="Spine-2&lt;br&gt;L0:&amp;nbsp;10.1.0.2/32" style="text;html=1;strokeColor=none;fillColor=none;align=center;verticalAlign=middle;whiteSpace=wrap;rounded=0;fontSize=20;fontFamily=Helvetica;horizontal=1;" parent="1" vertex="1">
          <mxGeometry x="585" y="147" width="141" height="40" as="geometry" />
        </mxCell>
        <mxCell id="8NDlUTmJP2dTjy302EjL-74" value="Leaf-3&lt;br&gt;L0:&amp;nbsp;10.1.1.3/32" style="text;html=1;strokeColor=none;fillColor=none;align=center;verticalAlign=middle;whiteSpace=wrap;rounded=0;fontSize=20;fontFamily=Helvetica;horizontal=1;" parent="1" vertex="1">
          <mxGeometry x="820" y="446" width="156" height="40" as="geometry" />
        </mxCell>
        <mxCell id="V7yZK2pKeIdHbW1tO0_u-18" value="" style="edgeStyle=none;rounded=0;hachureGap=4;orthogonalLoop=1;jettySize=auto;html=1;exitX=0.5;exitY=0;exitDx=0;exitDy=0;exitPerimeter=0;entryX=0.5;entryY=1;entryDx=0;entryDy=0;entryPerimeter=0;fontFamily=Architects Daughter;fontSource=https%3A%2F%2Ffonts.googleapis.com%2Fcss%3Ffamily%3DArchitects%2BDaughter;fontSize=16;endArrow=none;endFill=0;strokeWidth=3;strokeColor=#EA6B66;" parent="1" source="8NDlUTmJP2dTjy302EjL-2" target="8NDlUTmJP2dTjy302EjL-7" edge="1">
          <mxGeometry relative="1" as="geometry">
            <mxPoint x="670" y="312" as="sourcePoint" />
            <mxPoint x="665" y="318" as="targetPoint" />
          </mxGeometry>
        </mxCell>
        <mxCell id="V7yZK2pKeIdHbW1tO0_u-21" value="" style="edgeStyle=none;rounded=0;hachureGap=4;orthogonalLoop=1;jettySize=auto;html=1;exitX=0.5;exitY=0;exitDx=0;exitDy=0;exitPerimeter=0;entryX=0.5;entryY=1;entryDx=0;entryDy=0;entryPerimeter=0;fontFamily=Architects Daughter;fontSource=https%3A%2F%2Ffonts.googleapis.com%2Fcss%3Ffamily%3DArchitects%2BDaughter;fontSize=16;endArrow=none;endFill=0;strokeWidth=3;strokeColor=#EA6B66;" parent="1" source="hgnLhlOXLDX8HSQQPNeT-8" target="8NDlUTmJP2dTjy302EjL-7" edge="1">
          <mxGeometry relative="1" as="geometry">
            <mxPoint x="879" y="560" as="sourcePoint" />
            <mxPoint x="805" y="328" as="targetPoint" />
          </mxGeometry>
        </mxCell>
        <mxCell id="V7yZK2pKeIdHbW1tO0_u-28" value="" style="edgeStyle=none;rounded=0;hachureGap=4;orthogonalLoop=1;jettySize=auto;html=1;exitX=0.5;exitY=0;exitDx=0;exitDy=0;exitPerimeter=0;entryX=0.5;entryY=1;entryDx=0;entryDy=0;entryPerimeter=0;fontFamily=Architects Daughter;fontSource=https%3A%2F%2Ffonts.googleapis.com%2Fcss%3Ffamily%3DArchitects%2BDaughter;fontSize=16;endArrow=none;endFill=0;strokeColor=#EA6B66;strokeWidth=3;" parent="1" source="hgnLhlOXLDX8HSQQPNeT-7" target="8NDlUTmJP2dTjy302EjL-7" edge="1">
          <mxGeometry relative="1" as="geometry">
            <mxPoint x="607.5" y="540" as="sourcePoint" />
            <mxPoint x="620" y="492.0000000000001" as="targetPoint" />
          </mxGeometry>
        </mxCell>
        <mxCell id="V7yZK2pKeIdHbW1tO0_u-30" value="" style="edgeStyle=none;rounded=0;hachureGap=4;orthogonalLoop=1;jettySize=auto;html=1;exitX=0.5;exitY=0;exitDx=0;exitDy=0;exitPerimeter=0;fontFamily=Architects Daughter;fontSource=https%3A%2F%2Ffonts.googleapis.com%2Fcss%3Ffamily%3DArchitects%2BDaughter;fontSize=16;endArrow=none;endFill=0;strokeWidth=3;strokeColor=#EA6B66;entryX=0.5;entryY=1;entryDx=0;entryDy=0;entryPerimeter=0;" parent="1" source="hgnLhlOXLDX8HSQQPNeT-7" target="8NDlUTmJP2dTjy302EjL-5" edge="1">
          <mxGeometry relative="1" as="geometry">
            <mxPoint x="607.5" y="540" as="sourcePoint" />
            <mxPoint x="526" y="290" as="targetPoint" />
          </mxGeometry>
        </mxCell>
        <mxCell id="V7yZK2pKeIdHbW1tO0_u-50" value="Eth1:&lt;b&gt;1&lt;/b&gt;" style="text;html=1;strokeColor=#d6b656;fillColor=#fff2cc;align=center;verticalAlign=middle;whiteSpace=wrap;rounded=1;fontSize=14;fontFamily=Helvetica;horizontal=1;" parent="1" vertex="1">
          <mxGeometry x="299" y="422" width="50" height="20" as="geometry" />
        </mxCell>
        <mxCell id="V7yZK2pKeIdHbW1tO0_u-56" value="AS 65000" style="text;html=1;strokeColor=none;fillColor=none;align=center;verticalAlign=middle;whiteSpace=wrap;rounded=0;fontSize=24;fontFamily=Helvetica;horizontal=1;fontStyle=1;fontColor=#000000;" parent="1" vertex="1">
          <mxGeometry x="435" y="91" width="270" height="28" as="geometry" />
        </mxCell>
        <mxCell id="V7yZK2pKeIdHbW1tO0_u-65" value="Eth2:&lt;b&gt;7&lt;/b&gt;" style="text;html=1;strokeColor=#d6b656;fillColor=#fff2cc;align=center;verticalAlign=middle;whiteSpace=wrap;rounded=1;fontSize=14;fontFamily=Helvetica;horizontal=1;" parent="1" vertex="1">
          <mxGeometry x="349" y="450" width="50" height="20" as="geometry" />
        </mxCell>
        <mxCell id="V7yZK2pKeIdHbW1tO0_u-66" value="Eth1:&lt;b&gt;0&lt;/b&gt;" style="text;html=1;strokeColor=#d6b656;fillColor=#fff2cc;align=center;verticalAlign=middle;whiteSpace=wrap;rounded=1;fontSize=14;fontFamily=Helvetica;horizontal=1;" parent="1" vertex="1">
          <mxGeometry x="411.63" y="300" width="50" height="20" as="geometry" />
        </mxCell>
        <mxCell id="V7yZK2pKeIdHbW1tO0_u-67" value="Eth2:&lt;b&gt;2&lt;/b&gt;" style="text;html=1;strokeColor=#d6b656;fillColor=#fff2cc;align=center;verticalAlign=middle;whiteSpace=wrap;rounded=1;fontSize=14;fontFamily=Helvetica;horizontal=1;" parent="1" vertex="1">
          <mxGeometry x="470" y="318" width="50" height="20" as="geometry" />
        </mxCell>
        <mxCell id="V7yZK2pKeIdHbW1tO0_u-68" value="Eth1:&lt;b&gt;3&lt;/b&gt;" style="text;html=1;strokeColor=#d6b656;fillColor=#fff2cc;align=center;verticalAlign=middle;whiteSpace=wrap;rounded=1;fontSize=14;fontFamily=Helvetica;horizontal=1;" parent="1" vertex="1">
          <mxGeometry x="570" y="432" width="50" height="20" as="geometry" />
        </mxCell>
        <mxCell id="V7yZK2pKeIdHbW1tO0_u-69" value="Eth1:&lt;b&gt;6&lt;/b&gt;" style="text;html=1;strokeColor=#d6b656;fillColor=#fff2cc;align=center;verticalAlign=middle;whiteSpace=wrap;rounded=1;fontSize=14;fontFamily=Helvetica;horizontal=1;" parent="1" vertex="1">
          <mxGeometry x="600" y="298" width="50" height="20" as="geometry" />
        </mxCell>
        <mxCell id="V7yZK2pKeIdHbW1tO0_u-70" value="Eth3:&lt;b&gt;4&lt;/b&gt;" style="text;html=1;strokeColor=#d6b656;fillColor=#fff2cc;align=center;verticalAlign=middle;whiteSpace=wrap;rounded=1;fontSize=14;fontFamily=Helvetica;horizontal=1;" parent="1" vertex="1">
          <mxGeometry x="520" y="290" width="50" height="20" as="geometry" />
        </mxCell>
        <mxCell id="V7yZK2pKeIdHbW1tO0_u-71" value="Eth1:&lt;b&gt;5&lt;/b&gt;" style="text;html=1;strokeColor=#d6b656;fillColor=#fff2cc;align=center;verticalAlign=middle;whiteSpace=wrap;rounded=1;fontSize=14;fontFamily=Helvetica;horizontal=1;" parent="1" vertex="1">
          <mxGeometry x="740" y="463" width="50" height="20" as="geometry" />
        </mxCell>
        <mxCell id="V7yZK2pKeIdHbW1tO0_u-72" value="Eth2:&lt;b&gt;9&lt;/b&gt;" style="text;html=1;strokeColor=#d6b656;fillColor=#fff2cc;align=center;verticalAlign=middle;whiteSpace=wrap;rounded=1;fontSize=14;fontFamily=Helvetica;horizontal=1;" parent="1" vertex="1">
          <mxGeometry x="610" y="462" width="50" height="20" as="geometry" />
        </mxCell>
        <mxCell id="V7yZK2pKeIdHbW1tO0_u-73" value="Eth2:&lt;b&gt;8&lt;/b&gt;" style="text;html=1;strokeColor=#d6b656;fillColor=#fff2cc;align=center;verticalAlign=middle;whiteSpace=wrap;rounded=1;fontSize=14;fontFamily=Helvetica;horizontal=1;" parent="1" vertex="1">
          <mxGeometry x="627" y="323" width="50" height="20" as="geometry" />
        </mxCell>
        <mxCell id="V7yZK2pKeIdHbW1tO0_u-74" value="Eth3:&lt;b&gt;10&lt;/b&gt;" style="text;html=1;strokeColor=#d6b656;fillColor=#fff2cc;align=center;verticalAlign=middle;whiteSpace=wrap;rounded=1;fontSize=14;fontFamily=Helvetica;horizontal=1;" parent="1" vertex="1">
          <mxGeometry x="670" y="298" width="50" height="20" as="geometry" />
        </mxCell>
        <mxCell id="V7yZK2pKeIdHbW1tO0_u-75" value="Eth2:&lt;b&gt;11&lt;/b&gt;" style="text;html=1;strokeColor=#d6b656;fillColor=#fff2cc;align=center;verticalAlign=middle;whiteSpace=wrap;rounded=1;fontSize=14;fontFamily=Helvetica;horizontal=1;" parent="1" vertex="1">
          <mxGeometry x="790" y="430" width="50" height="20" as="geometry" />
        </mxCell>
        <mxCell id="CEXHskLTJOovul5yJfJE-7" value="AS 65001" style="text;html=1;strokeColor=none;fillColor=none;align=center;verticalAlign=middle;whiteSpace=wrap;rounded=0;fontSize=24;fontFamily=Helvetica;horizontal=1;fontStyle=1;fontColor=#000000;" parent="1" vertex="1">
          <mxGeometry x="104.5" y="366" width="270" height="28" as="geometry" />
        </mxCell>
        <mxCell id="CEXHskLTJOovul5yJfJE-8" value="AS 65002" style="text;html=1;strokeColor=none;fillColor=none;align=center;verticalAlign=middle;whiteSpace=wrap;rounded=0;fontSize=24;fontFamily=Helvetica;horizontal=1;fontStyle=1;fontColor=#000000;" parent="1" vertex="1">
          <mxGeometry x="365.13" y="402" width="270" height="28" as="geometry" />
        </mxCell>
        <mxCell id="CEXHskLTJOovul5yJfJE-9" value="AS 65003" style="text;html=1;strokeColor=none;fillColor=none;align=center;verticalAlign=middle;whiteSpace=wrap;rounded=0;fontSize=24;fontFamily=Helvetica;horizontal=1;fontStyle=1;fontColor=#000000;" parent="1" vertex="1">
          <mxGeometry x="711.5" y="384" width="270" height="28" as="geometry" />
        </mxCell>
        <mxCell id="8NDlUTmJP2dTjy302EjL-72" value="Leaf-2&lt;br&gt;L0:&amp;nbsp;10.1.1.2/32&amp;nbsp;" style="text;html=1;strokeColor=none;fillColor=none;align=center;verticalAlign=middle;whiteSpace=wrap;rounded=0;fontSize=20;fontFamily=Helvetica;horizontal=1;" parent="1" vertex="1">
          <mxGeometry x="450" y="456" width="150" height="50" as="geometry" />
        </mxCell>
        <mxCell id="8NDlUTmJP2dTjy302EjL-5" value="" style="shape=mxgraph.cisco.misc.route_switch_processor;html=1;dashed=0;fillColor=#036897;strokeColor=#ffffff;strokeWidth=2;verticalLabelPosition=bottom;verticalAlign=top;rounded=0;shadow=0;comic=0;fontFamily=Verdana;fontSize=12;" parent="1" vertex="1">
          <mxGeometry x="456.62" y="190" width="71" height="95" as="geometry" />
        </mxCell>
        <mxCell id="8NDlUTmJP2dTjy302EjL-2" value="" style="shape=mxgraph.cisco.switches.layer_3_switch;sketch=0;html=1;pointerEvents=1;dashed=0;fillColor=#036897;strokeColor=#ffffff;strokeWidth=2;verticalLabelPosition=bottom;verticalAlign=top;align=center;outlineConnect=0;hachureGap=4;jiggle=2;curveFitting=1;fontFamily=Architects Daughter;fontSource=https%3A%2F%2Ffonts.googleapis.com%2Fcss%3Ffamily%3DArchitects%2BDaughter;fontSize=20;" parent="1" vertex="1">
          <mxGeometry x="269" y="483" width="59" height="60" as="geometry" />
        </mxCell>
        <mxCell id="hgnLhlOXLDX8HSQQPNeT-7" value="" style="shape=mxgraph.cisco.switches.layer_3_switch;sketch=0;html=1;pointerEvents=1;dashed=0;fillColor=#036897;strokeColor=#ffffff;strokeWidth=2;verticalLabelPosition=bottom;verticalAlign=top;align=center;outlineConnect=0;hachureGap=4;jiggle=2;curveFitting=1;fontFamily=Architects Daughter;fontSource=https%3A%2F%2Ffonts.googleapis.com%2Fcss%3Ffamily%3DArchitects%2BDaughter;fontSize=20;" vertex="1" parent="1">
          <mxGeometry x="584.12" y="504" width="59" height="60" as="geometry" />
        </mxCell>
        <mxCell id="hgnLhlOXLDX8HSQQPNeT-8" value="" style="shape=mxgraph.cisco.switches.layer_3_switch;sketch=0;html=1;pointerEvents=1;dashed=0;fillColor=#036897;strokeColor=#ffffff;strokeWidth=2;verticalLabelPosition=bottom;verticalAlign=top;align=center;outlineConnect=0;hachureGap=4;jiggle=2;curveFitting=1;fontFamily=Architects Daughter;fontSource=https%3A%2F%2Ffonts.googleapis.com%2Fcss%3Ffamily%3DArchitects%2BDaughter;fontSize=20;" vertex="1" parent="1">
          <mxGeometry x="800" y="492.5" width="59" height="60" as="geometry" />
        </mxCell>
        <mxCell id="hgnLhlOXLDX8HSQQPNeT-11" value="" style="shape=mxgraph.cisco.servers.fileserver;sketch=0;html=1;pointerEvents=1;dashed=0;fillColor=#036897;strokeColor=#ffffff;strokeWidth=2;verticalLabelPosition=bottom;verticalAlign=top;align=center;outlineConnect=0;" vertex="1" parent="1">
          <mxGeometry x="230" y="600" width="58" height="82" as="geometry" />
        </mxCell>
        <mxCell id="hgnLhlOXLDX8HSQQPNeT-13" value="" style="shape=mxgraph.cisco.servers.fileserver;sketch=0;html=1;pointerEvents=1;dashed=0;fillColor=#036897;strokeColor=#ffffff;strokeWidth=2;verticalLabelPosition=bottom;verticalAlign=top;align=center;outlineConnect=0;" vertex="1" parent="1">
          <mxGeometry x="527.62" y="640" width="58" height="82" as="geometry" />
        </mxCell>
        <mxCell id="hgnLhlOXLDX8HSQQPNeT-14" value="" style="shape=mxgraph.cisco.servers.fileserver;sketch=0;html=1;pointerEvents=1;dashed=0;fillColor=#036897;strokeColor=#ffffff;strokeWidth=2;verticalLabelPosition=bottom;verticalAlign=top;align=center;outlineConnect=0;" vertex="1" parent="1">
          <mxGeometry x="880" y="610" width="58" height="82" as="geometry" />
        </mxCell>
      </root>
    </mxGraphModel>
  </diagram>
</mxfile>
